<svg xmlns="http://www.w3.org/2000/svg" xmlns:xlink="http://www.w3.org/1999/xlink" width="144" height="60" viewBox="0 0 144 60">
  <defs>
    <clipPath id="clip-path">
      <rect id="Rectangle_2" data-name="Rectangle 2" width="57.358" height="60" fill="none"/>
    </clipPath>
  </defs>
  <g id="Group_3718" data-name="Group 3718" transform="translate(-1124 -29)">
    <g id="Group_3716" data-name="Group 3716" transform="translate(1210.642 29)">
      <g id="Group_3715" data-name="Group 3715" clip-path="url(#clip-path)">
        <path id="Path_1" data-name="Path 1" d="M100.185,101.117a4.005,4.005,0,1,1-4.005-4,4,4,0,0,1,4.005,4" transform="translate(-67.501 -71.117)" fill="#ffc258"/>
        <path id="Path_2" data-name="Path 2" d="M57.358,20.6l-4.2-5.7-5.665,1.748,3.477-4.716L46.146,5.391,39.4,3.31,35.9,8.059h0V2.228L28.679,0,21.462,2.228v5.83l-3.5-4.749L11.211,5.392,6.388,11.929l3.477,4.716L4.2,14.9,0,20.594V28.7L4.212,30,0,31.3v8.1l4.208,5.7,5.66-1.745-3.475,4.71,4.828,6.546,6.739,2.081,3.5-4.751v5.831L28.679,60,35.9,57.774V51.943l3.5,4.751,6.738-2.08,4.83-6.547L47.49,43.355,53.151,45.1l4.207-5.7V31.3L53.147,30l4.212-1.3ZM40.307,6.068l4.4,1.355,3.322,4.505-4.344,5.893-7.784,2.4V12.05ZM36.63,32.618l-3.1.959v2.992l-2.989-.924-1.858,2.521-1.86-2.521-2.989.924V33.577l-3.1-.959L22.658,30l-1.93-2.618,3.1-.957V23.434l2.987.922,1.858-2.518,1.857,2.518,2.989-.922v2.992l3.106.957L34.7,30Zm-3.1-11.663-2.083.643L30.15,19.842l3.378-4.58Zm-7.615.643-2.083-.643V15.262l3.378,4.58Zm-4.448,3.081-2.226.687-3.2-4.335L21.465,22.7ZM19.716,30,18.33,31.881,12.242,30l6.089-1.879Zm-.478,4.636,2.224.686V37.3l-5.421,1.672Zm4.592,4.41,2.081-.644,1.3,1.757L23.83,44.74Zm7.616-.644,2.082.644v5.694L30.15,40.162Zm4.45-1.1V35.324l2.223-.686,3.2,4.334Zm3.133-5.419L37.643,30l1.383-1.878L45.115,30Zm-3.136-7.2V22.7l5.423-1.672-3.2,4.335ZM23.83,3.975l4.849-1.5,4.849,1.5v7.3l-4.849,6.576L23.83,11.271ZM12.654,7.426l4.4-1.357,4.411,5.982v8.174l-7.786-2.4L9.332,11.929ZM2.368,21.373l2.741-3.717,7.125,2.2,4.609,6.25L8.227,28.764,2.368,26.956Zm0,17.246V33.049l5.857-1.807L16.84,33.9l-4.607,6.249-7.117,2.2ZM17.052,53.935,12.664,52.58,9.336,48.067l4.34-5.885,7.786-2.4v8.174Zm11.627,3.587-4.849-1.5V48.734l4.848-6.577v0l4.849,6.575v7.295Zm16.015-4.94-4.386,1.353L35.9,47.953V39.779l7.786,2.4,4.341,5.885Zm10.3-13.963-2.749,3.725-7.118-2.2L40.518,33.9l8.615-2.657,5.858,1.807Zm0-11.663L49.13,28.764,40.516,26.1l4.608-6.25,7.124-2.2,2.743,3.718Z" fill="#3b8c67"/>
      </g>
    </g>
    <g id="Group_3717" data-name="Group 3717" transform="translate(1 -0.28)">
      <path id="Path_4" data-name="Path 4" d="M-53.64-5.04c-2.07,0-3.03-.45-3.03-2.7V-21.72h-3.99v18.6c0,3.21-2.28,4.86-5.46,4.86-3.51,0-5.58-1.65-5.58-5.01a14.054,14.054,0,0,1,1.23-5.25l-3.24-1.17a16.486,16.486,0,0,0-1.83,7.56c0,5.31,3.27,8.91,9.09,8.91,5.04,0,8.13-3.03,8.88-7.95A5.347,5.347,0,0,0-53.88,0l.51-.09.24-4.86Zm-.75,4.89.51.15h5.61l.48-.15.24-4.74-.51-.15h-5.58l-.51.21Zm5.58,0,.51.15h5.61l.48-.15.24-4.74-.51-.15h-5.58l-.51.21Zm5.58,0,.51.15h5.61l.48-.15.24-4.74-.51-.15h-5.58l-.51.21Zm16.38-4.89c-2.43,0-3.12-.45-3.12-2.91v-4.14h-3.81v4.35c0,2.28-.81,2.7-3.12,2.7l-.51.09-.24,4.86.51.09c2.7,0,4.17-1.2,4.8-3.03C-31.56-.99-29.79,0-27.09,0l.51-.09.24-4.86Zm-7.14,6.96a1.805,1.805,0,0,0-1.8,1.8,1.805,1.805,0,0,0,1.8,1.8,1.786,1.786,0,0,0,1.8-1.8A1.805,1.805,0,0,0-33.99,1.92Zm4.32,0a1.812,1.812,0,0,0-1.83,1.8,1.775,1.775,0,0,0,1.83,1.8,1.78,1.78,0,0,0,1.77-1.8A1.78,1.78,0,0,0-29.67,1.92Zm2.82-18.87a1.78,1.78,0,0,0,1.8,1.77,1.78,1.78,0,0,0,1.8-1.77,1.805,1.805,0,0,0-1.8-1.8A1.805,1.805,0,0,0-26.85-16.95Zm4.29,0a1.768,1.768,0,0,0,1.83,1.77,1.754,1.754,0,0,0,1.77-1.77,1.78,1.78,0,0,0-1.77-1.8A1.812,1.812,0,0,0-22.56-16.95ZM-27.12,0c4.65,0,7.05-2.88,7.05-7.5a20.861,20.861,0,0,0-1.08-6.18l-3.63,1.08a27.8,27.8,0,0,1,.93,5.34c0,1.5-.9,2.22-3.03,2.22l-.51.24-.24,4.59ZM-9.03-5.04a54.542,54.542,0,0,0-1.23-6.54l-3.72,1.08a49.487,49.487,0,0,1,1.23,7.71c0,2.28-1.65,4.44-5.43,4.44a17.07,17.07,0,0,1-2.1-.12l-.27,4.62a10.019,10.019,0,0,0,3.3.48c4.02,0,6.93-2.67,7.92-6.63h2.22l.51-.21.24-4.62-.51-.21Zm1.05-11.91a1.78,1.78,0,0,0,1.8,1.77,1.78,1.78,0,0,0,1.8-1.77,1.805,1.805,0,0,0-1.8-1.8A1.805,1.805,0,0,0-7.98-16.95Zm4.29,0a1.768,1.768,0,0,0,1.83,1.77A1.754,1.754,0,0,0-.09-16.95a1.78,1.78,0,0,0-1.77-1.8A1.812,1.812,0,0,0-3.69-16.95ZM-8.25,0C-3.6,0-1.2-2.88-1.2-7.5a20.86,20.86,0,0,0-1.08-6.18L-5.91-12.6a27.8,27.8,0,0,1,.93,5.34c0,1.5-.9,2.22-3.03,2.22l-.51.24L-8.76-.21Z" transform="translate(1199 59)" fill="#3b8c67"/>
      <path id="Path_3" data-name="Path 3" d="M-76.328-3.83a.469.469,0,0,0,.461-.471.469.469,0,0,0-.461-.471A.471.471,0,0,0-76.8-4.3.471.471,0,0,0-76.328-3.83ZM-73.4-1.14a9.836,9.836,0,0,0-.432-2.267l-.634.182a9.948,9.948,0,0,1,.442,2.478c0,1.133-.893,1.767-2.3,1.767S-78.576.415-78.576-.843a4.871,4.871,0,0,1,.423-1.786l-.557-.2A5.209,5.209,0,0,0-79.2-.7c0,1.508,1.028,2.516,2.824,2.516A2.687,2.687,0,0,0-73.438-.343h.989l.163-.029.029-.74-.163-.029Zm.951.8a1.718,1.718,0,0,0,1.834-1.882,9.947,9.947,0,0,0-.269-1.959l-.615.144a10.466,10.466,0,0,1,.259,1.921c0,.682-.4.98-1.181.98l-.163.029-.029.74Zm.4,1.623a.427.427,0,0,0,.432-.442A.432.432,0,0,0-72.045.4a.447.447,0,0,0-.442.442A.447.447,0,0,0-72.045,1.28Zm1.21,0A.445.445,0,0,0-70.4.838.445.445,0,0,0-70.835.4a.435.435,0,0,0-.442.442A.435.435,0,0,0-70.835,1.28Zm7.117-2.42c-.691,0-1.191-.134-1.191-1.1v-4.85h-.634v4.8c0,.855-.528,1.095-1.325,1.143l-1.3-4.735-.624.221,1.258,4.523h-2.363v.8h2.632a1.967,1.967,0,0,0,1.94-.989c.154.7.788.989,1.575.989l.163-.029.029-.74Zm.9-3.909a.469.469,0,0,0,.461-.471.469.469,0,0,0-.461-.471.471.471,0,0,0-.471.471A.471.471,0,0,0-62.816-5.049Zm-1.22,4.706A1.718,1.718,0,0,0-62.2-2.226a9.947,9.947,0,0,0-.269-1.959l-.615.144a10.465,10.465,0,0,1,.259,1.921c0,.682-.4.98-1.181.98l-.163.029-.029.74Zm5.09-3.9a1.993,1.993,0,0,0-1.988,2.151A1.565,1.565,0,0,0-59.176-.439a1.69,1.69,0,0,0,1.527-.749c-.038.932-.807,2.074-2.67,2.074A5.522,5.522,0,0,1-61.5.771l-.077.749a4.506,4.506,0,0,0,1.22.163,3.037,3.037,0,0,0,3.333-3.361C-57.024-3.032-57.716-4.243-58.945-4.243Zm-.163,3.006c-.72,0-1.2-.336-1.2-.941a1.25,1.25,0,0,1,1.287-1.268c.874,0,1.258.874,1.354,1.469A1.488,1.488,0,0,1-59.108-1.236Zm3.63-6.243c-.327,0-.509-.144-.509-.317,0-.192.211-.327.432-.327a.628.628,0,0,1,.432.192l.24-.365a.788.788,0,0,0-.682-.375.8.8,0,0,0-.826.807.523.523,0,0,0,.154.413h-.3v.471h1.719v-.5Zm.125,7.136v-6.07h-.634v6.07Zm6.291-4.168a.469.469,0,0,0,.461-.471.469.469,0,0,0-.461-.471.471.471,0,0,0-.471.471A.471.471,0,0,0-49.063-4.511Zm3.006,2.948A9.242,9.242,0,0,0-46.5-4.079l-.634.182a9.947,9.947,0,0,1,.442,2.478c0,1.133-.893,1.767-2.3,1.767s-2.257-.605-2.257-1.863A4.871,4.871,0,0,1-50.82-3.3l-.557-.2a5.209,5.209,0,0,0-.49,2.132c0,1.508,1.028,2.516,2.824,2.516A2.668,2.668,0,0,0-46.057-1.563Zm2.881-6.1a1.88,1.88,0,0,1-.586.086c-.461,0-.788-.182-1.22-.182a1.279,1.279,0,0,0-.73.23v.5a1.588,1.588,0,0,1,.634-.125c.346,0,.682.182,1.152.182a1.445,1.445,0,0,0,.749-.173ZM-44.76-.343h.634v-6.07h-.634Zm4.12-.8a16.169,16.169,0,0,0-.336-2.372l-.624.154a16.561,16.561,0,0,1,.346,2.564A1.851,1.851,0,0,1-43.3.982a4.965,4.965,0,0,1-.653-.038l-.077.749a3,3,0,0,0,.73.086A2.565,2.565,0,0,0-40.678-.343h.922l.163-.029.029-.74-.163-.029Zm2.593-4.677a.427.427,0,0,0,.432-.442.432.432,0,0,0-.432-.442.447.447,0,0,0-.442.442A.447.447,0,0,0-38.047-5.818Zm1.21,0a.445.445,0,0,0,.432-.442.445.445,0,0,0-.432-.442.435.435,0,0,0-.442.442A.435.435,0,0,0-36.837-5.818ZM-35.06-1.14a8.154,8.154,0,0,1-1.623-.144,1.98,1.98,0,0,0,1.008-1.671,1.848,1.848,0,0,0-1.767-1.969A1.957,1.957,0,0,0-39.315-2.86a2.012,2.012,0,0,0,.884,1.594,8.879,8.879,0,0,1-1.489.125l-.163.029-.029.74.163.029a5.822,5.822,0,0,0,2.382-.442,6.63,6.63,0,0,0,2.478.442l.163-.029.029-.74ZM-38.7-2.956a1.176,1.176,0,0,1,1.2-1.172,1.218,1.218,0,0,1,1.21,1.268c0,.567-.461,1.028-1.229,1.335A1.6,1.6,0,0,1-38.7-2.956Zm4.831-4.139V-2.1c0,.826-.49.96-1.191.96l-.163.029-.029.74.163.029a1.687,1.687,0,0,0,1.854-1.873V-7.095Zm2.8,6.752V-7.095H-31.7V-.343Zm10.526-.8a1.467,1.467,0,0,1-.884-.192,1.886,1.886,0,0,0,.269-1.028,2.047,2.047,0,0,0-2.007-2.094,3.671,3.671,0,0,0-2.8,1.738,4.521,4.521,0,0,0,.221-1.258V-7.095h-.634V-2.12c-.192.3-.384.624-.567.98h-.826v.8h3.813a3.529,3.529,0,0,0,2.094-.528c.182.336.557.528,1.3.528l.163-.029.029-.74Zm-2.91-4.235a.469.469,0,0,0,.461-.471.469.469,0,0,0-.461-.471.471.471,0,0,0-.471.471A.471.471,0,0,0-23.449-5.376ZM-26.311-1.14c.749-1.364,1.8-2.516,3.044-2.516a1.412,1.412,0,0,1,1.489,1.364c0,.807-.864,1.152-2.074,1.152Zm8.788,0c-.768,0-1.191-.134-1.191-1.1V-3.609h-.634v1.364c0,.98-.528,1.1-1.191,1.1l-.163.029-.029.74.163.029A1.4,1.4,0,0,0-19.1-1.275c.163.643.778.932,1.546.932l.163-.029.029-.74ZM-19.636.4a.447.447,0,0,0-.442.442.447.447,0,0,0,.442.442A.427.427,0,0,0-19.2.838.432.432,0,0,0-19.636.4Zm1.21,0a.435.435,0,0,0-.442.442.435.435,0,0,0,.442.442.445.445,0,0,0,.432-.442A.445.445,0,0,0-18.426.4Zm3.381-6.243a.469.469,0,0,0,.461-.471.469.469,0,0,0-.461-.471.471.471,0,0,0-.471.471A.471.471,0,0,0-15.045-5.846Zm2.382,4.706a8.154,8.154,0,0,1-1.623-.144,1.98,1.98,0,0,0,1.008-1.671,1.848,1.848,0,0,0-1.767-1.969A1.957,1.957,0,0,0-16.918-2.86a2.012,2.012,0,0,0,.884,1.594,8.879,8.879,0,0,1-1.489.125l-.163.029-.029.74.163.029A5.822,5.822,0,0,0-15.17-.785a6.63,6.63,0,0,0,2.478.442l.163-.029.029-.74ZM-16.3-2.956a1.176,1.176,0,0,1,1.2-1.172,1.218,1.218,0,0,1,1.21,1.268c0,.567-.461,1.028-1.229,1.335A1.6,1.6,0,0,1-16.3-2.956ZM-5.518-1.14c-.9,0-1.239-.3-1.316-1.018h.807l.048-.855H-7.026c-.538,0-.682-.077-1.527-.576a3.623,3.623,0,0,0-2.065-.768,2.237,2.237,0,0,0-1.7.7l.307.519a2.327,2.327,0,0,1,1.345-.423,3.828,3.828,0,0,1,1.815.615c.279.144.49.269.672.365A7.766,7.766,0,0,1-12.663-1.14l-.163.029-.029.74.163.029A8.057,8.057,0,0,0-7.717-2.158h.346c.058,1.114.423,1.815,1.825,1.815l.163-.029.029-.74Zm.144-4.322a.447.447,0,0,0,.442.442A.427.427,0,0,0-4.5-5.462.432.432,0,0,0-4.932-5.9.447.447,0,0,0-5.374-5.462Zm1.21,0a.435.435,0,0,0,.442.442.445.445,0,0,0,.432-.442A.445.445,0,0,0-3.722-5.9.435.435,0,0,0-4.164-5.462ZM-5.547-.343A1.718,1.718,0,0,0-3.712-2.226a9.947,9.947,0,0,0-.269-1.959l-.615.144A10.465,10.465,0,0,1-4.337-2.12c0,.682-.4.98-1.181.98l-.163.029-.029.74Z" transform="translate(1202.2 79)"/>
    </g>
  </g>
</svg>
